<svg width="22" height="18" viewBox="0 0 22 18" xmlns="http://www.w3.org/2000/svg"><g id="Page-1" fill="none" fill-rule="evenodd"><path d="M19 14.993c1.658 0 3-1.345 3-3.004V3.995c0-1.66-1.344-3.003-3-3.003H3c-1.657 0-3 1.344-3 3.003v7.993c0 1.66 1.344 3.003 3 3.003h13.62c-.083.492.05 1.022.404 1.4l.952 1.02c.568.61 1.024.428 1.024-.397v-2.023zm-12-6c.552 0 1-.448 1-1 0-.553-.448-1-1-1s-1 .447-1 1c0 .552.448 1 1 1zm4 0c.552 0 1-.448 1-1 0-.553-.448-1-1-1s-1 .447-1 1c0 .552.448 1 1 1zm4 0c.552 0 1-.448 1-1 0-.553-.448-1-1-1s-1 .447-1 1c0 .552.448 1 1 1z" id="comment" fill="#FFF"/></g></svg>