<svg width="17" height="22" viewBox="0 0 17 22" xmlns="http://www.w3.org/2000/svg"><g id="Page-1" fill="none" fill-rule="evenodd"><path d="M15.922 16.59c-.212 1.193-1.123 1.353-1.16 1.36-.146.02-.27.135-.282.282-.013.146.064.276.2.323.05.03.36.254.124 1.114-.306 1.114-1.356 1.7-3.123 1.745-.564.014-1.043.005-1.504-.027-.527-.037-.997-.1-1.593-.183-.504-.07-1.075-.148-1.83-.23-1.175-.13-3.263-.95-3.915-1.278-.542-.273-1.52-.173-1.718-.57-.438-.875-.655-6.66-.092-8.004.563-1.344 1.926-.862 2.5-1.28.583-.425.85-1.022 1.913-2.094C6.94 6.24 7.06 6.07 7.71 4.966c.122-.204.236-.393.34-.566.475-.79.762-1.27.82-1.657.026-.18.01-.38-.012-.61-.032-.365-.068-.78.07-1.212.083-.266.348-.43.658-.41.324.024.628.236.854.6.598.954.824 2.415.506 3.257-.146.388-.35.773-.545 1.145-.26.493-.504.958-.61 1.407-.172.713-.364 1.283-.367 1.29-.028.084-.02.177.024.255.043.08.118.135.205.155.027.007.664.153 1.464.21.545.037 1.036.024 1.457-.04.57-.087 1.402-.197 2.052-.15.48.032.79.147.87.322.283.62.482 1.263-.194 2.305-.05.08-.063.18-.033.273.03.09.1.164.19.197.01.004 1.016.398.954.97-.108 1.014-.263 1.837-1.095 1.934-.154.02-.273.148-.28.303-.006.156.1.293.253.325.035.007.836.187.634 1.32z" id="like" fill="#FFF"/></g></svg>