<svg width="24" height="18" viewBox="0 0 24 18" xmlns="http://www.w3.org/2000/svg"><g id="Page-1" fill="none" fill-rule="evenodd"><g id="nav" fill="#FFF"><g id="Page-1"><g id="nav"><path d="M1.826 16h20.348c1.008 0 1.826.448 1.826 1s-.818 1-1.826 1H1.826C.818 18 0 17.552 0 17s.818-1 1.826-1z" id="p3"/><path d="M1.826 8h20.348C23.182 8 24 8.448 24 9c0 .553-.818 1-1.826 1H1.826C.818 10 0 9.553 0 9c0-.552.818-1 1.826-1z" id="p2"/><path d="M1.826 0h20.348C23.182 0 24 .448 24 1s-.818 1-1.826 1H1.826C.818 2 0 1.552 0 1s.818-1 1.826-1z" id="p1"/></g></g></g></g></svg>