<?xml version="1.0" encoding="UTF-8" standalone="no"?>
<svg width="22px" height="18px" viewBox="0 0 22 18" version="1.1" xmlns="http://www.w3.org/2000/svg" xmlns:xlink="http://www.w3.org/1999/xlink" xmlns:sketch="http://www.bohemiancoding.com/sketch/ns">
    <!-- Generator: Sketch 3.3 (11970) - http://www.bohemiancoding.com/sketch -->
    <title>comment</title>
    <desc>Created with Sketch.</desc>
    <defs></defs>
    <g id="Page-1" stroke="none" stroke-width="1" fill="none" fill-rule="evenodd" sketch:type="MSPage">
        <path d="M19,14.9926237 C20.6576675,14.9918742 22,13.6475154 22,11.9892728 L22,3.99597528 C22,2.33500289 20.6562333,0.992624034 18.9986131,0.992624034 L3.00138694,0.992624034 C1.34308127,0.992624034 0,2.33727019 0,3.99597528 L0,11.9892728 C0,13.6502452 1.3437667,14.992624 3.00138694,14.992624 L16.620941,14.992624 C16.5370084,15.4849537 16.6707071,16.0146428 17.0240391,16.3933122 L17.9759609,17.4134961 C18.5443646,18.02266 19,17.8414376 19,17.0155289 L19,14.9926237 Z M7,8.99262403 C7.55228475,8.99262403 8,8.54490878 8,7.99262403 C8,7.44033928 7.55228475,6.99262403 7,6.99262403 C6.44771525,6.99262403 6,7.44033928 6,7.99262403 C6,8.54490878 6.44771525,8.99262403 7,8.99262403 Z M11,8.99262403 C11.5522847,8.99262403 12,8.54490878 12,7.99262403 C12,7.44033928 11.5522847,6.99262403 11,6.99262403 C10.4477153,6.99262403 10,7.44033928 10,7.99262403 C10,8.54490878 10.4477153,8.99262403 11,8.99262403 Z M15,8.99262403 C15.5522847,8.99262403 16,8.54490878 16,7.99262403 C16,7.44033928 15.5522847,6.99262403 15,6.99262403 C14.4477153,6.99262403 14,7.44033928 14,7.99262403 C14,8.54490878 14.4477153,8.99262403 15,8.99262403 Z" id="comment" fill="#FFFFFF" sketch:type="MSShapeGroup"></path>
    </g>
</svg>