<?xml version="1.0" encoding="UTF-8" standalone="no"?>
<svg width="17px" height="22px" viewBox="0 0 17 22" version="1.1" xmlns="http://www.w3.org/2000/svg" xmlns:xlink="http://www.w3.org/1999/xlink" xmlns:sketch="http://www.bohemiancoding.com/sketch/ns">
    <!-- Generator: Sketch 3.3 (11970) - http://www.bohemiancoding.com/sketch -->
    <title>like</title>
    <desc>Created with Sketch.</desc>
    <defs></defs>
    <g id="Page-1" stroke="none" stroke-width="1" fill="none" fill-rule="evenodd" sketch:type="MSPage">
        <path d="M16.3012912,16.0676415 C16.1731611,17.2729945 15.276767,17.4961888 15.2411179,17.5047136 C15.0961966,17.5359712 14.9799495,17.6594514 14.9781412,17.8074727 C14.9760746,17.953169 15.0615808,18.0776825 15.2018522,18.1146233 C15.2511927,18.1401976 15.5761678,18.3437592 15.4017972,19.2174205 C15.1752446,20.3501837 14.1688032,21.0089171 12.4106308,21.1768295 C11.8474783,21.2305615 11.3700904,21.2551026 10.9076853,21.2551026 C10.3796653,21.2551026 9.9061522,21.2235867 9.3063173,21.1838044 C8.7989634,21.1497052 8.22444453,21.1117312 7.46651361,21.0820236 C6.28518501,21.0357831 4.14575709,20.3641814 3.47244184,20.0817782 C2.91343074,19.8473167 1.94514487,20.0161124 1.71948067,19.6340033 C1.22200946,18.7916533 0.600512745,13.039745 1.06790728,11.6600301 C1.53530182,10.2803151 2.92875121,10.6655232 3.47244189,10.2075097 C4.02304347,9.74367431 4.24672798,9.12975776 5.23250317,7.98717818 C6.61997658,6.37883533 6.72924883,6.19929818 7.30170109,5.05439367 C7.40813174,4.84179068 7.50810423,4.64597895 7.59955192,4.46566682 C8.01829972,3.64289586 8.2704267,3.14665002 8.30039262,2.7555432 C8.31434227,2.57393943 8.28360137,2.37709439 8.24717729,2.14925012 C8.18982873,1.78630093 8.12473037,1.37504461 8.23064437,0.935114017 C8.29574273,0.662837537 8.5486447,0.480200467 8.85967021,0.480200467 C9.18438703,0.480200467 9.50161238,0.670587342 9.75296439,1.0167453 C10.4153144,1.92657239 10.7436478,3.36803611 10.485321,4.2295561 C10.3664906,4.62634611 10.1908284,5.02442775 10.0216243,5.40959306 C9.7973966,5.91901357 9.5855686,6.40027646 9.50987884,6.85544833 C9.38924021,7.57876346 9.23734403,8.16103214 9.23553575,8.16671533 C9.21280298,8.25325482 9.22752761,8.3454775 9.27660971,8.4206506 C9.32543348,8.49582371 9.40370651,8.5467141 9.49257094,8.56092207 C9.51943693,8.56531363 10.1647374,8.66683607 10.9665838,8.66683607 C11.5129451,8.66683607 12.0011828,8.61956226 12.417089,8.52578962 C12.9786915,8.3994678 13.8006875,8.23155536 14.4519294,8.23155536 C14.9334507,8.23155536 15.2488677,8.3242947 15.3408321,8.49298212 C15.6676155,9.09152538 15.9109594,9.71874293 15.3103495,10.8050073 C15.2638507,10.8892218 15.2586841,10.9902276 15.2948499,11.079092 C15.3315323,11.1679565 15.4067054,11.2356381 15.4984114,11.2630207 C15.5090028,11.2661206 16.5389519,11.5882542 16.5175108,12.1625148 C16.4800534,13.1821308 16.3829225,14.0129098 15.5601516,14.1684226 C15.4072221,14.1973552 15.2976915,14.3334934 15.3015664,14.4890062 C15.3064746,14.6445189 15.4227217,14.774199 15.5772011,14.7951235 C15.6118169,14.8000317 16.4232215,14.9227369 16.3012912,16.0676415 Z" id="like" fill="#FFFFFF" sketch:type="MSShapeGroup" transform="translate(8.710208, 10.867652) rotate(4.000000) translate(-8.710208, -10.867652) "></path>
    </g>
</svg>