<?xml version="1.0" encoding="UTF-8" standalone="no"?>
<svg width="24px" height="18px" viewBox="0 0 24 18" version="1.1" xmlns="http://www.w3.org/2000/svg" xmlns:xlink="http://www.w3.org/1999/xlink" xmlns:sketch="http://www.bohemiancoding.com/sketch/ns">
    <!-- Generator: Sketch 3.3 (11970) - http://www.bohemiancoding.com/sketch -->
    <title>nav</title>
    <desc>Created with Sketch.</desc>
    <defs></defs>
    <g id="Page-1" stroke="none" stroke-width="1" fill="none" fill-rule="evenodd" sketch:type="MSPage">
        <g id="nav" sketch:type="MSLayerGroup" fill="#FFFFFF">
            <g id="Page-1" sketch:type="MSShapeGroup">
                <g id="nav">
                    <path d="M1.82613333,16 L22.1738667,16 C23.1824,16 24,16.448 24,17 C24,17.5525 23.1824,18 22.1738667,18 L1.82613333,18 C0.8176,18 0,17.5525 0,17 C0,16.448 0.8176,16 1.82613333,16 L1.82613333,16 Z" id="p3"></path>
                    <path d="M1.82613333,8 L22.1738667,8 C23.1824,8 24,8.448 24,9 C24,9.5525 23.1824,10 22.1738667,10 L1.82613333,10 C0.8176,10 0,9.5525 0,9 C0,8.448 0.8176,8 1.82613333,8 L1.82613333,8 Z" id="p2"></path>
                    <path d="M1.82613333,0 L22.1738667,0 C23.1824,0 24,0.448 24,1 C24,1.5525 23.1824,2 22.1738667,2 L1.82613333,2 C0.8176,2 0,1.5525 0,1 C0,0.448 0.8176,0 1.82613333,0 L1.82613333,0 Z" id="p1"></path>
                </g>
            </g>
        </g>
    </g>
</svg>